<svg xmlns="http://www.w3.org/2000/svg" width="256" height="256" viewBox="0 0 100 100"><rect width="100" height="100" rx="20" fill="#000000"></rect><path d="M62.54 80.74L62.54 80.74Q61 82.06 57.76 83.05Q54.51 84.04 50.66 84.04L50.66 84.04Q46.04 84.04 42.74 82.67Q39.44 81.29 38.23 78.88L38.23 78.88Q37.02 76.34 35.26 72.33Q33.50 68.31 31.58 63.36Q29.65 58.41 27.62 52.86Q25.58 47.30 23.71 41.58Q21.84 35.86 20.19 30.36Q18.54 24.86 17.33 20.02L17.33 20.02Q18.87 18.48 21.79 17.22Q24.70 15.95 28.00 15.95L28.00 15.95Q32.07 15.95 34.66 17.66Q37.24 19.36 38.45 23.98L38.45 23.98Q41.42 34.76 44.45 44.61Q47.47 54.45 50.77 65.13L50.77 65.13L51.43 65.13Q54.40 54.78 57.54 42.57Q60.67 30.36 63.53 18.26L63.53 18.26Q65.51 17.27 67.77 16.61Q70.02 15.95 72.88 15.95L72.88 15.95Q76.95 15.95 79.81 17.77Q82.67 19.58 82.67 23.76L82.67 23.76Q82.67 26.18 81.52 30.80Q80.36 35.42 78.55 41.20Q76.73 46.97 74.48 53.24Q72.22 59.51 69.97 65.07Q67.71 70.63 65.73 74.86Q63.75 79.09 62.54 80.74Z" fill="#00dbff"></path></svg>